<svg id="Layer_1" data-name="Layer 1" xmlns="http://www.w3.org/2000/svg" viewBox="0 0 1920 1080"><defs><style>.cls-1{fill:#618abc;}.cls-2{fill:#b8d5e8;}.cls-3{fill:#95bad8;}.cls-4{fill:#79a1c9;}.cls-5{fill:#265fac;}</style></defs><polygon class="cls-1" points="658.73 1078.35 563.96 1031.47 504 917 430.42 937.71 360.1 924.09 338.84 896.29 315.4 915.91 300.14 916.46 291.96 907.19 193.85 994.4 0.89 1078.35 658.73 1078.35"/><path class="cls-2" d="M560.39,1078.35,798.66,967l43.57-40.1,6.42-38.23,9.62-7.21L861.75,867h5.88l2.94,6.68L877,878l27.27,24.59,29.94-1.33L939,906l19.51,7,42.24,9.09,20-5.61S1054,913,1055,913s237.15,165.38,237.15,165.38Z"/><path class="cls-3" d="M1920,1078.35V993.42L1811.37,962.3l-32.69-17.4-17.93-2.63-15.29,13.18L1727,967.58l-85.42-26.37-84.9-51.15L1533,888l-2.11,5.28-16.88,1L1500.25,888h-17.4v6.86l-17.4,2.11v4.22l-5.8-4.22s-13.18,13.18-15.29,14.24-19.51-4.22-21.09-3.7-51.15-2.63-51.15-2.63l-15.74,12.69-36.73,11.09-30.12,23.91-36.6,125.83Z"/><polygon class="cls-4" points="808.98 1078.35 850.2 1040.39 980.35 958.26 1090.85 901.07 1111.11 890.74 1120.17 888.6 1120.17 884.03 1118.69 884.03 1118.69 880.43 1120.44 880.43 1120.44 866.99 1124.08 866.99 1124.08 880.43 1125.73 880.43 1125.77 884 1124.35 884 1124.32 887.99 1125.84 887.65 1135.05 895.03 1186 911 1242.48 926.88 1297.72 955.2 1456.89 1078.35 808.98 1078.35"/><polygon class="cls-5" points="855.63 1078.35 702.52 798.09 702.52 798.09 702.52 798.09 691.23 806.92 677.18 750.04 643.33 761.26 631.71 820.78 475.23 1078.35 855.63 1078.35"/></svg>